<svg width="116" height="40" viewBox="0 0 116 40" fill="none" xmlns="http://www.w3.org/2000/svg">
<path d="M3.40054 34.6185V39.447H1.77715V27.1091H6.31912C7.66731 27.1091 8.72265 27.453 9.48764 28.1435C10.2526 28.834 10.6339 29.7446 10.6339 30.8802C10.6339 32.0791 10.2602 32.9998 9.51288 33.6473C8.76556 34.2948 7.69509 34.6185 6.30397 34.6185H3.40307H3.40054ZM3.40054 33.2881H6.31912C7.18762 33.2881 7.85162 33.0833 8.31617 32.6735C8.77819 32.2638 9.01046 31.6694 9.01046 30.8954C9.01046 30.1215 8.77819 29.5726 8.31617 29.13C7.85414 28.6873 7.22044 28.4597 6.41253 28.442H3.40054V33.2881Z" fill="#2A7F95"/>
<path d="M22.7772 39.447H21.1437V33.7434H14.9355V39.447H13.3121V27.1091H14.9355V32.413H21.1437V27.1091H22.7772V39.447Z" fill="#2A7F95"/>
<path d="M33.2222 36.2196H28.0642L26.9054 39.447H25.2315L29.9351 27.1091H31.3565L36.0676 39.447H34.4013L33.2248 36.2196H33.2222ZM28.554 34.8892H32.74L30.642 29.1199L28.554 34.8892Z" fill="#2A7F95"/>
<path d="M42.8472 34.4567H39.9539V39.447H38.3204V27.1091H42.3978C43.7839 27.1091 44.8519 27.4252 45.5992 28.0575C46.3465 28.6899 46.7202 29.6105 46.7202 30.8195C46.7202 31.5884 46.5131 32.2562 46.0991 32.8278C45.685 33.3994 45.1069 33.8243 44.3696 34.1076L47.263 39.3433V39.4445H45.5209L42.8472 34.4541V34.4567ZM39.9564 33.1263H42.4509C43.2562 33.1263 43.8975 32.9163 44.3747 32.499C44.8519 32.0791 45.0892 31.5202 45.0892 30.817C45.0892 30.0532 44.862 29.4664 44.4075 29.0591C43.9531 28.6519 43.2992 28.4445 42.4408 28.4395H39.9539V33.1263H39.9564Z" fill="#2A7F95"/>
<path d="M51.7036 27.1091L55.7306 37.1757L59.7575 27.1091H61.8631V39.447H60.2397V34.6438L60.3912 29.4588L56.3491 39.4495H55.107L51.0725 29.4841L51.234 34.6438V39.447H49.6107V27.1091H51.7087H51.7036Z" fill="#2A7F95"/>
<path d="M72.1362 36.2196H66.9782L65.8193 39.447H64.1454L68.849 27.1091H70.2704L74.9815 39.447H73.3152L72.1387 36.2196H72.1362ZM67.468 34.8892H71.6539L69.5559 29.1199L67.468 34.8892Z" fill="#2A7F95"/>
<path d="M83.1662 38.1166H89.0008V39.447H81.5327V27.1091H83.1662V38.1166Z" fill="#2A7F95"/>
<path d="M97.6456 28.4395H93.6869V39.447H92.0711V28.4395H88.1224V27.1091H97.6456V28.4395Z" fill="#2A7F95"/>
<path d="M100.081 39.447V27.1091H103.558C104.628 27.1091 105.578 27.3468 106.401 27.8198C107.224 28.2953 107.86 28.9681 108.307 29.8458C108.756 30.7209 108.981 31.7276 108.988 32.8632V33.6523C108.988 34.8158 108.764 35.8351 108.317 36.7103C107.867 37.5854 107.229 38.2582 106.398 38.7261C105.567 39.194 104.598 39.4343 103.492 39.447H100.084H100.081ZM101.705 28.4395V38.1166H103.414C104.666 38.1166 105.641 37.7271 106.335 36.9455C107.032 36.1665 107.38 35.0536 107.38 33.6119V32.891C107.38 31.4898 107.052 30.3997 106.396 29.6206C105.739 28.8416 104.808 28.4496 103.601 28.4369H101.707L101.705 28.4395Z" fill="#2A7F95"/>
<path d="M111.533 38.6252C111.533 38.3545 111.614 38.1294 111.776 37.9473C111.937 37.7677 112.177 37.6767 112.498 37.6767C112.818 37.6767 113.063 37.7677 113.23 37.9473C113.397 38.1294 113.48 38.3545 113.48 38.6252C113.48 38.8958 113.397 39.1032 113.23 39.2777C113.063 39.4523 112.821 39.5408 112.498 39.5408C112.175 39.5408 111.935 39.4523 111.776 39.2777C111.614 39.1032 111.533 38.8857 111.533 38.6252Z" fill="#2A7F95"/>
<path d="M0 21.2107L7.31915 0H10.8992L18.1881 21.2107L17.875 21.714H16.1481L14.2318 15.9245H3.96128L2.04502 21.714H0.348412L0.00252718 21.2107H0ZM4.65053 14.0376H13.5729L9.5207 1.92226H8.7027L4.65053 14.0376Z" fill="url(#paint0_linear_18_251)"/>
<path d="M21.395 17.0278V4.69239C21.395 1.56617 22.9553 0.00307083 26.0758 0.00307083H35.6874L36.8816 0.946494V1.9228H25.9824C24.3287 1.9228 23.5006 2.73977 23.5006 4.37622V17.3414C23.5006 18.9779 24.3287 19.7948 25.9824 19.7948H35.4071V11.2028H29.7518V9.31342H37.5102V21.712H26.0758C22.9553 21.712 21.395 20.1489 21.395 17.0227V17.0278Z" fill="url(#paint1_linear_18_251)"/>
<path d="M40.4275 0.506399L40.7406 0.00307083H42.4675L48.749 11.5215L55.0002 0.00307083H56.7599L57.0427 0.506399L49.7866 13.5652V21.7146H47.681V13.5652L40.425 0.506399H40.4275Z" fill="url(#paint2_linear_18_251)"/>
<path d="M56.7332 21.2107L64.0523 0H67.6323L74.9212 21.2107L74.6081 21.714H72.8812L70.965 15.9245H60.6944L58.7782 21.714H57.0816L56.7357 21.2107H56.7332ZM61.3811 14.0376H70.3035L66.2513 1.92226H65.4333L61.3811 14.0376Z" fill="url(#paint3_linear_18_251)"/>
<path d="M78.4384 21.714V0H80.794L93.0136 18.5979V0H95.0864V21.714H92.7611L80.5415 3.1161V21.714H78.4359H78.4384Z" fill="url(#paint4_linear_18_251)"/>
<path d="M98.6381 0.506399L98.9512 0.00307083H100.678L106.96 11.5215L113.211 0.00307083H114.971L115.253 0.506399L107.997 13.5652V21.7146H105.892V13.5652L98.6356 0.506399H98.6381Z" fill="url(#paint5_linear_18_251)"/>
<defs>
<linearGradient id="paint0_linear_18_251" x1="0" y1="10.8583" x2="18.1881" y2="10.8583" gradientUnits="userSpaceOnUse">
<stop offset="0.01" stop-color="#120E36"/>
<stop offset="0.54" stop-color="#10052F"/>
</linearGradient>
<linearGradient id="paint1_linear_18_251" x1="21.395" y1="-192.226" x2="37.5077" y2="-192.226" gradientUnits="userSpaceOnUse">
<stop offset="0.01" stop-color="#120E36"/>
<stop offset="0.54" stop-color="#10052F"/>
</linearGradient>
<linearGradient id="paint2_linear_18_251" x1="40.4275" y1="-192.226" x2="57.0452" y2="-192.226" gradientUnits="userSpaceOnUse">
<stop offset="0.01" stop-color="#120E36"/>
<stop offset="0.54" stop-color="#10052F"/>
</linearGradient>
<linearGradient id="paint3_linear_18_251" x1="56.7332" y1="-192.227" x2="74.9212" y2="-192.227" gradientUnits="userSpaceOnUse">
<stop offset="0.01" stop-color="#120E36"/>
<stop offset="0.54" stop-color="#10052F"/>
</linearGradient>
<linearGradient id="paint4_linear_18_251" x1="78.4384" y1="-192.227" x2="95.0889" y2="-192.227" gradientUnits="userSpaceOnUse">
<stop offset="0.01" stop-color="#120E36"/>
<stop offset="0.54" stop-color="#10052F"/>
</linearGradient>
<linearGradient id="paint5_linear_18_251" x1="98.6381" y1="-192.226" x2="115.256" y2="-192.226" gradientUnits="userSpaceOnUse">
<stop offset="0.01" stop-color="#120E36"/>
<stop offset="0.54" stop-color="#10052F"/>
</linearGradient>
</defs>
</svg>
